<svg width="200" height="38" viewBox="0 0 200 38" fill="none" xmlns="http://www.w3.org/2000/svg">
<mask id="mask0" mask-type="alpha" maskUnits="userSpaceOnUse" x="0" y="5" width="15" height="17">
<path d="M0 5.35352H14.3775V21.9155H0V5.35352Z" fill="white"/>
</mask>
<g mask="url(#mask0)">
<path fill-rule="evenodd" clip-rule="evenodd" d="M9.85356 10.5591C9.67327 9.55211 9.32116 8.48732 7.07187 8.48732C4.82539 8.48732 4.52961 9.34507 4.52961 10.0253C4.52961 12.5099 14.3775 10.7056 14.3775 16.5014C14.3775 21.0845 9.93947 21.9155 7.48595 21.9155C3.90567 21.9155 0.0338372 20.6732 -0.0844727 16.4732H4.17327C4.17327 17.8042 5.00144 18.7789 7.60567 18.7789C9.73525 18.7789 10.2367 17.7437 10.2367 17.1521C10.2367 14.5211 0.477499 16.5014 0.477499 10.6169C0.477499 8.30985 1.92539 5.35352 6.83525 5.35352C9.90989 5.35352 13.5789 6.12112 13.9057 10.5591H9.85356Z" fill="#363636"/>
</g>
<path d="M15.9182 21.5H20.0605V5.76619H15.9182V21.5ZM15.9182 3.90281H20.0605V0.0591431H15.9182V3.90281Z" fill="#363636"/>
<path fill-rule="evenodd" clip-rule="evenodd" d="M44.931 21.5H40.7916V11.9465C40.7916 9.61126 39.7564 8.84225 38.5437 8.84225C36.4733 8.84225 35.7324 10.2014 35.7324 12.0662V21.5H31.5958V12.0366C31.5958 10.7056 31.5958 8.84225 29.1099 8.84225C27.1592 8.84225 26.5381 10.2014 26.5381 11.9183V21.5H22.3972V5.76619H26.3592V8.07183H26.4198C26.9507 7.03943 28.1043 5.35352 30.8845 5.35352C33.162 5.35352 34.1972 6.17887 35.262 7.8676C35.7944 7.09718 36.9465 5.35352 39.462 5.35352C42.5367 5.35352 44.931 7.15633 44.931 10.6169V21.5Z" fill="#363636"/>
<path d="M54.9339 18.5127C57.5945 18.5127 58.3367 15.6141 58.3367 13.7507C58.3367 11.269 57.448 8.93239 54.8156 8.93239C51.9762 8.93239 51.2959 11.4746 51.2959 13.9873C51.2959 16.3239 52.3015 18.5127 54.9339 18.5127ZM51.2959 8.04366H51.3551C52.1241 6.8014 53.2804 5.35352 56.0579 5.35352C59.517 5.35352 62.5931 8.01408 62.5931 13.4563C62.5931 17.7718 60.6424 21.9155 55.9691 21.9155C53.072 21.9155 52.0339 20.3451 51.5339 19.4887H51.4748V27.6225H47.3325V5.76619H51.2959V8.04366Z" fill="#363636"/>
<path fill-rule="evenodd" clip-rule="evenodd" d="M64.4592 21.5H68.6001V0.264771H64.4592V21.5Z" fill="#363636"/>
<path d="M80.8465 12.0662C80.6084 9.52253 78.9831 8.75352 77.6521 8.75352C75.6986 8.75352 74.6662 9.99577 74.4296 12.0662H80.8465ZM84.9268 16.8873C83.8324 20.6732 80.6986 21.9155 78.007 21.9155C73.5704 21.9155 70.1704 19.7859 70.1704 13.307C70.1704 11.4155 70.8197 5.35352 77.7127 5.35352C80.8169 5.35352 85.1056 6.83098 85.1056 14.0183V14.7577H74.3098C74.4296 15.9394 74.6662 18.6028 78.007 18.6028C79.1606 18.6028 80.3422 18.0099 80.6704 16.8873H84.9268Z" fill="#363636"/>
<path fill-rule="evenodd" clip-rule="evenodd" d="M110.338 15.7634C110.19 17.3887 108.918 21.9155 103.151 21.9155C97.2365 21.9155 95.876 17.3887 95.876 14.0761C95.876 8.99014 98.0943 5.35352 103.417 5.35352C105.9 5.35352 109.984 6.47605 110.369 11.3859H106.169C105.99 10.3803 105.397 8.84225 103.625 8.84225H103.417C100.814 8.84225 100.135 11.4451 100.135 13.3972C100.135 15.1127 100.194 18.5127 103.328 18.5127C105.428 18.5127 106.137 16.5014 106.137 15.7634H110.338Z" fill="#363636"/>
<path d="M119.096 8.84225C115.899 8.84225 115.31 11.6211 115.31 13.6338C115.31 15.6437 115.899 18.4239 119.096 18.4239C122.287 18.4239 122.88 15.6437 122.88 13.6338C122.88 11.6211 122.287 8.84225 119.096 8.84225ZM119.096 21.9155C114.865 21.9155 111.051 19.3127 111.051 13.6338C111.051 7.95633 114.865 5.35352 119.096 5.35352C123.324 5.35352 127.14 7.95633 127.14 13.6338C127.14 19.3127 123.324 21.9155 119.096 21.9155Z" fill="#363636"/>
<path fill-rule="evenodd" clip-rule="evenodd" d="M134.21 21.5H130.072V8.72394H127.794V5.7662H130.072V4.49437C130.072 1.24225 131.847 0 134.685 0C135.897 0 136.459 0.028169 136.816 0.0591549V3.4H135.661C134.242 3.4 134.21 3.84507 134.21 5.14648V5.7662H136.9V8.72394H134.21V21.5Z" fill="#363636"/>
<path fill-rule="evenodd" clip-rule="evenodd" d="M144.032 21.5H139.891V8.72394H137.614V5.7662H139.891V4.49437C139.891 1.24225 141.665 0 144.506 0C145.717 0 146.279 0.028169 146.635 0.0591549V3.4H145.48C144.062 3.4 144.032 3.84507 144.032 5.14648V5.7662H146.722V8.72394H144.032V21.5Z" fill="#363636"/>
<path d="M157.548 12.0662C157.311 9.52253 155.685 8.75352 154.354 8.75352C152.403 8.75352 151.368 9.99577 151.131 12.0662H157.548ZM161.631 16.8873C160.534 20.6732 157.401 21.9155 154.708 21.9155C150.273 21.9155 146.873 19.7859 146.873 13.307C146.873 11.4155 147.524 5.35352 154.411 5.35352C157.52 5.35352 161.809 6.83098 161.809 14.0183V14.7577H151.013C151.131 15.9394 151.368 18.6028 154.708 18.6028C155.863 18.6028 157.045 18.0099 157.373 16.8873H161.631Z" fill="#363636"/>
<path d="M173.169 12.0662C172.932 9.52253 171.304 8.75352 169.975 8.75352C168.021 8.75352 166.987 9.99577 166.751 12.0662H173.169ZM177.248 16.8873C176.155 20.6732 173.02 21.9155 170.328 21.9155C165.893 21.9155 162.493 19.7859 162.493 13.307C162.493 11.4155 163.142 5.35352 170.034 5.35352C173.138 5.35352 177.427 6.83098 177.427 14.0183V14.7577H166.634C166.751 15.9394 166.987 18.6028 170.328 18.6028C171.483 18.6028 172.666 18.0099 172.993 16.8873H177.248Z" fill="#363636"/>
<path fill-rule="evenodd" clip-rule="evenodd" d="M199.538 21.9493V0.736633L197.241 3.71128H192.648V0.736633L184.506 11.6986H191.954L187.038 21.9493" fill="#E5702A"/>
<path d="M151.69 27.032V28.488C151.279 28.4693 151.06 28.46 151.032 28.46C150.677 28.46 150.439 28.5113 150.318 28.614C150.206 28.7073 150.15 28.9033 150.15 29.202V29.776H151.564V31.12H150.164V37H148.176V31.12H147V29.776H148.176V29.398C148.176 28.5487 148.367 27.9373 148.75 27.564C149.133 27.1813 149.767 26.99 150.654 26.99C150.757 26.99 150.864 26.9947 150.976 27.004C151.097 27.004 151.228 27.0087 151.368 27.018C151.508 27.0273 151.615 27.032 151.69 27.032Z" fill="#363636"/>
<path d="M155.974 29.566C157.085 29.566 157.976 29.916 158.648 30.616C159.329 31.316 159.67 32.24 159.67 33.388C159.67 34.5453 159.329 35.474 158.648 36.174C157.976 36.874 157.075 37.224 155.946 37.224C154.817 37.224 153.911 36.874 153.23 36.174C152.549 35.474 152.208 34.5453 152.208 33.388C152.208 32.24 152.553 31.316 153.244 30.616C153.935 29.916 154.845 29.566 155.974 29.566ZM155.918 31.078C155.386 31.078 154.966 31.2833 154.658 31.694C154.35 32.1047 154.196 32.6693 154.196 33.388C154.196 34.1253 154.35 34.6993 154.658 35.11C154.966 35.5207 155.395 35.726 155.946 35.726C156.497 35.726 156.921 35.5207 157.22 35.11C157.528 34.69 157.682 34.1113 157.682 33.374C157.682 32.6553 157.523 32.0953 157.206 31.694C156.898 31.2833 156.469 31.078 155.918 31.078Z" fill="#363636"/>
<path d="M165.667 29.65V31.484C165.387 31.428 165.13 31.4 164.897 31.4C164.243 31.4 163.763 31.61 163.455 32.03C163.147 32.4407 162.993 32.996 162.993 33.696V37H161.005V29.776H162.895V31.106C163.371 30.1073 164.15 29.608 165.233 29.608C165.326 29.608 165.471 29.622 165.667 29.65Z" fill="#363636"/>
<path d="M176.419 31.876H174.571C174.515 31.512 174.375 31.2553 174.151 31.106C173.936 30.9567 173.619 30.882 173.199 30.882C172.844 30.882 172.569 30.9473 172.373 31.078C172.177 31.1993 172.079 31.372 172.079 31.596C172.079 31.8573 172.191 32.0393 172.415 32.142C172.639 32.2447 173.04 32.3567 173.619 32.478C173.721 32.4967 173.796 32.5107 173.843 32.52C174.179 32.5853 174.445 32.646 174.641 32.702C174.846 32.7487 175.093 32.8327 175.383 32.954C175.672 33.066 175.896 33.1967 176.055 33.346C176.213 33.486 176.353 33.6773 176.475 33.92C176.596 34.1627 176.657 34.4427 176.657 34.76C176.657 35.516 176.363 36.1133 175.775 36.552C175.187 36.9907 174.379 37.21 173.353 37.21C172.373 37.21 171.565 37 170.931 36.58C170.296 36.16 169.974 35.516 169.965 34.648H171.855C171.92 35.4507 172.433 35.852 173.395 35.852C173.796 35.852 174.113 35.7727 174.347 35.614C174.589 35.446 174.711 35.2267 174.711 34.956C174.711 34.6853 174.603 34.494 174.389 34.382C174.174 34.27 173.777 34.1487 173.199 34.018C173.152 34.0087 173.115 33.9993 173.087 33.99C173.021 33.9713 172.877 33.9387 172.653 33.892C172.429 33.8453 172.27 33.8127 172.177 33.794C172.093 33.766 171.948 33.724 171.743 33.668C171.547 33.612 171.402 33.5607 171.309 33.514C171.215 33.458 171.089 33.3927 170.931 33.318C170.781 33.234 170.669 33.1453 170.595 33.052C170.52 32.9587 170.436 32.8513 170.343 32.73C170.259 32.5993 170.198 32.4547 170.161 32.296C170.133 32.1373 170.119 31.9647 170.119 31.778C170.119 31.0687 170.394 30.5227 170.945 30.14C171.495 29.7573 172.275 29.566 173.283 29.566C174.188 29.566 174.93 29.7527 175.509 30.126C176.087 30.4993 176.391 31.0827 176.419 31.876Z" fill="#363636"/>
<path d="M181.81 29.776V31.12H180.34V34.522C180.34 34.7367 180.345 34.8953 180.354 34.998C180.363 35.0913 180.396 35.1893 180.452 35.292C180.508 35.3947 180.592 35.4647 180.704 35.502C180.825 35.53 180.993 35.544 181.208 35.544C181.451 35.544 181.651 35.5347 181.81 35.516V37.028C181.325 37.0653 180.923 37.084 180.606 37.084C179.738 37.084 179.145 36.9347 178.828 36.636C178.52 36.328 178.366 35.74 178.366 34.872V31.12H177.162V29.776H178.366V27.592H180.34V29.776H181.81Z" fill="#363636"/>
<path d="M189.476 37H187.46C187.395 36.8133 187.348 36.58 187.32 36.3C186.713 36.9067 185.934 37.21 184.982 37.21C184.179 37.21 183.549 37.0187 183.092 36.636C182.635 36.244 182.406 35.7073 182.406 35.026C182.406 34.718 182.443 34.4473 182.518 34.214C182.602 33.9807 182.733 33.7847 182.91 33.626C183.097 33.4673 183.269 33.3367 183.428 33.234C183.596 33.1313 183.825 33.0473 184.114 32.982C184.403 32.9167 184.637 32.87 184.814 32.842C184.991 32.8047 185.239 32.7673 185.556 32.73C186.256 32.6367 186.723 32.5387 186.956 32.436C187.199 32.3333 187.32 32.142 187.32 31.862C187.32 31.218 186.886 30.896 186.018 30.896C185.561 30.896 185.225 30.98 185.01 31.148C184.795 31.3067 184.655 31.5913 184.59 32.002H182.728C182.84 30.378 183.955 29.566 186.074 29.566C188.174 29.566 189.224 30.35 189.224 31.918V35.04C189.224 35.9547 189.308 36.608 189.476 37ZM187.306 33.486C187.073 33.626 186.606 33.752 185.906 33.864C185.318 33.9573 184.935 34.074 184.758 34.214C184.553 34.382 184.45 34.6247 184.45 34.942C184.45 35.2407 184.543 35.4787 184.73 35.656C184.926 35.824 185.197 35.908 185.542 35.908C186.074 35.908 186.499 35.768 186.816 35.488C187.143 35.1987 187.306 34.802 187.306 34.298V33.486Z" fill="#363636"/>
<path d="M194.729 27.032V28.488C194.318 28.4693 194.099 28.46 194.071 28.46C193.716 28.46 193.478 28.5113 193.357 28.614C193.245 28.7073 193.189 28.9033 193.189 29.202V29.776H194.603V31.12H193.203V37H191.215V31.12H190.039V29.776H191.215V29.398C191.215 28.5487 191.406 27.9373 191.789 27.564C192.172 27.1813 192.806 26.99 193.693 26.99C193.796 26.99 193.903 26.9947 194.015 27.004C194.136 27.004 194.267 27.0087 194.407 27.018C194.547 27.0273 194.654 27.032 194.729 27.032Z" fill="#363636"/>
<path d="M199.5 27.032V28.488C199.089 28.4693 198.87 28.46 198.842 28.46C198.487 28.46 198.249 28.5113 198.128 28.614C198.016 28.7073 197.96 28.9033 197.96 29.202V29.776H199.374V31.12H197.974V37H195.986V31.12H194.81V29.776H195.986V29.398C195.986 28.5487 196.177 27.9373 196.56 27.564C196.943 27.1813 197.577 26.99 198.464 26.99C198.567 26.99 198.674 26.9947 198.786 27.004C198.907 27.004 199.038 27.0087 199.178 27.018C199.318 27.0273 199.425 27.032 199.5 27.032Z" fill="#363636"/>
</svg>
