<svg width="29" height="200" viewBox="0 0 29 200" fill="none" xmlns="http://www.w3.org/2000/svg">
<g clip-path="url(#clip0)">
<mask id="mask0" mask-type="alpha" maskUnits="userSpaceOnUse" x="5" y="185" width="18" height="15">
<path d="M5.8999 199.916L5.8999 185.538H22.4619V199.916H5.8999Z" fill="white"/>
</mask>
<g mask="url(#mask0)">
<path fill-rule="evenodd" clip-rule="evenodd" d="M11.1055 190.062C10.0985 190.242 9.03371 190.594 9.03371 192.844C9.03371 195.09 9.89145 195.386 10.5717 195.386C13.0562 195.386 11.252 185.538 17.0478 185.538C21.6309 185.538 22.4619 189.976 22.4619 192.43C22.4619 196.01 21.2196 199.882 17.0196 200V195.742C18.3506 195.742 19.3253 194.914 19.3253 192.31C19.3253 190.18 18.29 189.679 17.6985 189.679C15.0675 189.679 17.0478 199.438 11.1633 199.438C8.85624 199.438 5.8999 197.99 5.8999 193.08C5.8999 190.006 6.66751 186.337 11.1055 186.01V190.062Z" fill="#363636"/>
</g>
<path d="M22.0463 183.997V179.855H6.31251V183.997H22.0463ZM4.44913 183.997V179.855H0.605469L0.605469 183.997H4.44913Z" fill="#363636"/>
<path fill-rule="evenodd" clip-rule="evenodd" d="M22.0464 154.985V159.124H12.4929C10.1576 159.124 9.38863 160.159 9.38863 161.372C9.38863 163.442 10.7478 164.183 12.6126 164.183H22.0464V168.32H12.583C11.252 168.32 9.38863 168.32 9.38863 170.806C9.38863 172.756 10.7478 173.377 12.4647 173.377H22.0464V177.518H6.31258V173.556H8.61821V173.496C7.58582 172.965 5.8999 171.811 5.8999 169.031C5.8999 166.754 6.72525 165.718 8.41399 164.654C7.64356 164.121 5.8999 162.969 5.8999 160.454C5.8999 157.379 7.70272 154.985 11.1633 154.985H22.0464Z" fill="#363636"/>
<path d="M19.0591 144.982C19.0591 142.321 16.1605 141.579 14.2971 141.579C11.8154 141.579 9.47878 142.468 9.47878 145.1C9.47878 147.939 12.021 148.62 14.5337 148.62C16.8703 148.62 19.0591 147.614 19.0591 144.982ZM8.59004 148.62V148.56C7.34779 147.791 5.8999 146.635 5.8999 143.858C5.8999 140.399 8.56047 137.322 14.0027 137.322C18.3182 137.322 22.4619 139.273 22.4619 143.946C22.4619 146.844 20.8915 147.882 20.0351 148.382V148.441H28.1689V152.583H6.31258V148.62H8.59004Z" fill="#363636"/>
<path fill-rule="evenodd" clip-rule="evenodd" d="M22.0465 135.456V131.315H0.811279L0.811279 135.456H22.0465Z" fill="#363636"/>
<path d="M12.6126 119.069C10.0689 119.307 9.2999 120.932 9.2999 122.263C9.2999 124.217 10.5422 125.249 12.6126 125.486V119.069ZM17.4337 114.989C21.2196 116.083 22.4619 119.217 22.4619 121.908C22.4619 126.345 20.3323 129.745 13.8534 129.745C11.9619 129.745 5.8999 129.096 5.8999 122.203C5.8999 119.099 7.37737 114.81 14.5647 114.81H15.3041L15.3041 125.606C16.4858 125.486 19.1492 125.249 19.1492 121.908C19.1492 120.755 18.5562 119.573 17.4337 119.245V114.989Z" fill="#363636"/>
<path fill-rule="evenodd" clip-rule="evenodd" d="M16.3098 89.5776C17.9351 89.7255 22.4619 90.9973 22.4619 96.7649C22.4619 102.679 17.9351 104.04 14.6224 104.04C9.53652 104.04 5.8999 101.821 5.8999 96.4987C5.8999 94.0156 7.02244 89.9311 11.9323 89.5466V93.7466C10.9267 93.9255 9.38863 94.5184 9.38863 96.2903V96.4987C9.38863 99.1015 11.9915 99.7804 13.9436 99.7804C15.6591 99.7804 19.0591 99.7212 19.0591 96.5874C19.0591 94.4874 17.0478 93.779 16.3098 93.779V89.5776Z" fill="#363636"/>
<path d="M9.38863 80.8197C9.38863 84.0169 12.1675 84.6056 14.1802 84.6056C16.19 84.6056 18.9703 84.0169 18.9703 80.8197C18.9703 77.6281 16.19 77.0352 14.1802 77.0352C12.1675 77.0352 9.38863 77.6281 9.38863 80.8197ZM22.4619 80.8197C22.4619 85.0507 19.8591 88.8647 14.1802 88.8647C8.50272 88.8647 5.8999 85.0507 5.8999 80.8197C5.8999 76.5915 8.50272 72.776 14.1802 72.776C19.8591 72.776 22.4619 76.5915 22.4619 80.8197Z" fill="#363636"/>
<path fill-rule="evenodd" clip-rule="evenodd" d="M22.0464 65.7056V69.8436H9.27033V72.1211H6.31258V69.8436H5.04075C1.78864 69.8436 0.546387 68.069 0.546387 65.231C0.546387 64.0183 0.574556 63.4563 0.605542 63.1H3.94639V64.2549C3.94639 65.6732 4.39146 65.7056 5.69287 65.7056H6.31258L6.31258 63.0155H9.27033V65.7056H22.0464Z" fill="#363636"/>
<path fill-rule="evenodd" clip-rule="evenodd" d="M22.0464 55.8832V60.024H9.27033V62.3015H6.31258V60.024H5.04075C1.78864 60.024 0.546387 58.2508 0.546387 55.41C0.546387 54.1987 0.574556 53.6367 0.605542 53.2804H3.94639V54.4353C3.94639 55.8536 4.39146 55.8832 5.69287 55.8832H6.31258L6.31258 53.1931H9.27033V55.8832H22.0464Z" fill="#363636"/>
<path d="M12.6126 42.3676C10.0689 42.6042 9.2999 44.231 9.2999 45.562C9.2999 47.5127 10.5422 48.5479 12.6126 48.7845V42.3676ZM17.4337 38.2845C21.2196 39.3817 22.4619 42.5141 22.4619 45.207C22.4619 49.6422 20.3323 53.0422 13.8534 53.0422C11.9619 53.0422 5.8999 52.3915 5.8999 45.5042C5.8999 42.3958 7.37737 38.107 14.5647 38.107H15.3041L15.3041 48.9028C16.4858 48.7845 19.1492 48.5479 19.1492 45.207C19.1492 44.0521 18.5562 42.8704 17.4337 42.5422V38.2845Z" fill="#363636"/>
<path d="M12.6126 26.7466C10.0689 26.9832 9.2999 28.6113 9.2999 29.9409C9.2999 31.8944 10.5422 32.9283 12.6126 33.1649V26.7466ZM17.4337 22.6677C21.2196 23.7606 22.4619 26.8959 22.4619 29.5874C22.4619 34.0226 20.3323 37.4226 13.8534 37.4226C11.9619 37.4226 5.8999 36.7733 5.8999 29.8818C5.8999 26.7775 7.37737 22.4888 14.5647 22.4888H15.3041L15.3041 33.2818C16.4858 33.1649 19.1492 32.9282 19.1492 29.5874C19.1492 28.4325 18.5562 27.2494 17.4337 26.9226V22.6677Z" fill="#363636"/>
<path fill-rule="evenodd" clip-rule="evenodd" d="M22.4956 0.377518L1.28296 0.377518L4.25761 2.6747L4.25761 7.26765H1.28296L12.2449 15.4099V7.96202L22.4956 12.8775" fill="#E5702A"/>
</g>
<defs>
<clipPath id="clip0">
<rect width="200" height="29" fill="white" transform="translate(0 200) rotate(-90)"/>
</clipPath>
</defs>
</svg>
