<svg width="24" height="24" viewBox="0 0 24 24" fill="none" xmlns="http://www.w3.org/2000/svg">
<path fill-rule="evenodd" clip-rule="evenodd" d="M0 12C0 5.37258 5.37258 0 12 0C18.6274 0 24 5.37258 24 12C24 18.6274 18.6274 24 12 24C5.37258 24 0 18.6274 0 12ZM12.6277 15.938C12.6277 15.938 12.8587 15.9128 12.9771 15.788C13.0854 15.6737 13.0816 15.458 13.0816 15.458C13.0816 15.458 13.0672 14.4508 13.5436 14.3021C14.0132 14.1559 14.6161 15.2761 15.2559 15.7069C15.7392 16.0326 16.1061 15.9613 16.1061 15.9613L17.8158 15.938C17.8158 15.938 18.7098 15.8839 18.286 15.1938C18.2509 15.1373 18.0387 14.6831 17.0151 13.7503C15.9427 12.7738 16.0867 12.9317 17.3776 11.2424C18.1639 10.2137 18.4782 9.58563 18.3799 9.31708C18.2866 9.06021 17.7081 9.12842 17.7081 9.12842L15.7836 9.14009C15.7836 9.14009 15.6409 9.12104 15.5351 9.18311C15.4318 9.24395 15.3648 9.3859 15.3648 9.3859C15.3648 9.3859 15.0606 10.1817 14.6543 10.8589C13.7972 12.2871 13.4547 12.3627 13.3145 12.2742C12.9883 12.0671 13.0697 11.4433 13.0697 11.0003C13.0697 9.61574 13.2838 9.0387 12.6534 8.88937C12.4443 8.83959 12.2903 8.80702 11.755 8.80149C11.0682 8.79473 10.4873 8.80395 10.158 8.96188C9.93885 9.06697 9.76982 9.30171 9.87312 9.31523C10.0002 9.33183 10.2882 9.39143 10.4409 9.59546C10.6382 9.85909 10.6313 10.4503 10.6313 10.4503C10.6313 10.4503 10.7446 12.08 10.3664 12.2822C10.1073 12.4211 9.75167 12.1378 8.98726 10.8417C8.59598 10.178 8.30049 9.44428 8.30049 9.44428C8.30049 9.44428 8.24352 9.30725 8.14147 9.2335C8.01814 9.14439 7.84597 9.11674 7.84597 9.11674L6.01729 9.12842C6.01729 9.12842 5.74245 9.13579 5.64166 9.25317C5.55213 9.35702 5.63477 9.57272 5.63477 9.57272C5.63477 9.57272 7.06654 12.8611 8.68801 14.5184C10.1749 16.0375 11.8627 15.938 11.8627 15.938H12.6277Z" fill="#363636"/>
</svg>
